<svg version="1" xmlns="http://www.w3.org/2000/svg" width="1365.333" height="1365.333" viewBox="0 0 1024.000000 1024.000000"><path d="M0 512v512h1024V0H0v512zm358.6-246c13.2 36.6 32.7 90.3 43.3 119.5 10.5 29.1 40.4 111.6 66.3 183.3 28.3 78 47.5 129.7 47.9 128.9.4-.7 5-13.2 10.2-27.8 5.2-14.5 44.7-124.5 87.7-244.4s78.9-219.9 79.7-222.3l1.5-4.2H890v37h-8.7c-43.6.1-63 10.2-71.6 37.4l-2.2 7.1v463l2.2 7.1c8.6 27.2 28 37.3 71.6 37.4h8.7v37H656v-37h4.8c13.4-.1 29.8-2.8 36.8-6.1 5.8-2.8 14.4-10.9 17.3-16.6 1.1-2.3 3.1-7.4 4.3-11.4l2.3-7.4.2-240c.1-132-.1-239.3-.4-238.5-.3.8-20.3 56.4-44.3 123.5-24 67.1-68.8 192.1-99.5 277.7L521.7 825H498c-21.7 0-23.8-.2-24.5-1.8-.8-2.2-184.3-505.9-200.6-550.7-1.7-4.9-1.8 2.1-1.6 233.5l.2 238.5 2.2 7.7c2.4 8.3 5.2 14.5 9 19.5 3.1 4 11.5 9.8 17.3 11.8 5.3 1.9 23.1 4.5 31.3 4.5h5.7v37H134v-37h8.8c38.5-.1 58.5-7.9 67.9-26.4 6.3-12.3 5.7 8.7 6-245.9.4-253.1.7-239-5.4-251.3-5.3-10.9-15-19.3-26.6-23.3-8.7-3-23.8-4.9-40.4-5L134 236v-37l100.2.2 100.3.3 24.1 66.5z"/></svg>